<?xml version="1.0" encoding="utf-8"?>
<!-- Generator: Adobe Illustrator 25.1.0, SVG Export Plug-In . SVG Version: 6.00 Build 0)  -->
<svg version="1.1" id="Ebene_1" xmlns="http://www.w3.org/2000/svg" xmlns:xlink="http://www.w3.org/1999/xlink" x="0px" y="0px"
	 viewBox="0 0 419.5 595.3" style="enable-background:new 0 0 419.5 595.3;" xml:space="preserve" width="419.5" height="595.3">
<style type="text/css">
	.st0{fill:#FFFFFF;stroke:#3C3C3B;stroke-width:1.6734;stroke-linejoin:round;stroke-miterlimit:10;}
	.st1{fill:#636362;}
</style>
<polygon class="st0" points="175.3,190.3 149.2,172.6 133.7,206.7 140.9,206.2 157,208.4 "/>
<polygon class="st0" points="200.4,157.7 175.6,169 149.2,172.6 175.3,190.3 "/>
<polygon class="st0" points="175.3,190.3 200.4,157.7 226.5,192.3 212.3,203.7 "/>
<polygon class="st0" points="200.4,157.7 226.5,192.3 234.4,169.7 "/>
<polygon class="st0" points="234.4,169.7 267.7,195.2 258,207.6 226.5,192.3 "/>
<polygon class="st0" points="267.7,195.2 294.6,246.6 285.1,245.5 258,207.6 "/>
<polygon class="st0" points="246.9,220.2 258,207.6 285.1,245.5 "/>
<polygon class="st0" points="285.1,245.5 239.9,255.5 246.9,220.2 "/>
<polygon class="st0" points="289.3,299.1 285.1,245.5 239.9,255.5 "/>
<polygon class="st0" points="233.6,293.8 289.3,299.1 239.9,255.5 "/>
<polygon class="st0" points="259.5,318.9 280,310.2 289.3,299.1 233.6,293.8 "/>
<polygon class="st0" points="259.5,318.9 245.4,339.6 233.6,293.8 "/>
<polygon class="st0" points="220.9,360.5 245.4,339.6 232,361.5 "/>
<polygon class="st0" points="245.4,339.6 220.9,360.5 214.5,332.2 "/>
<polygon class="st0" points="214.5,332.2 245.4,339.6 233.6,293.8 222.2,279.9 224.4,296.7 "/>
<polygon class="st0" points="214.5,332.2 193.2,329.9 197.1,309.7 224.4,296.7 "/>
<polygon class="st0" points="212.3,203.7 226.5,192.3 258,207.6 246.9,220.2 "/>
<polygon class="st0" points="213.6,228.1 212.3,203.7 246.9,220.2 "/>
<polygon class="st0" points="181.4,215.8 212.3,203.7 213.6,228.1 185.2,236.6 "/>
<polygon class="st0" points="181.4,215.8 157,208.4 175.3,190.3 212.3,203.7 "/>
<polygon class="st0" points="213.6,228.1 246.9,220.2 239.9,255.5 "/>
<polygon class="st0" points="185.2,236.6 213.6,228.1 239.9,255.5 201,254 "/>
<polygon class="st0" points="201,254 239.9,255.5 233.6,293.8 "/>
<polygon class="st0" points="201,254 186.3,273.8 197.1,309.7 224.4,296.7 222.2,279.9 "/>
<polygon class="st0" points="186.3,273.8 201,254 185.2,236.6 "/>
<polygon class="st0" points="140.9,206.2 129.6,225.4 170.4,225.3 140.4,243.1 129.8,256 108.1,266.7 106.9,273.7 136.9,270.2 
	153.7,255.1 185.2,236.6 181.4,215.8 157,208.4 "/>
<polygon class="st0" points="185.2,236.6 153.7,255.1 186.3,273.8 "/>
<polygon class="st0" points="186.3,273.8 144.3,286.4 136.9,270.2 153.7,255.1 "/>
<polygon class="st0" points="106.9,273.7 136.9,270.2 144.3,286.4 113.6,286.5 "/>
<polygon class="st0" points="108.1,266.7 129.8,256 106.8,254.2 "/>
<polygon class="st0" points="153.5,225.3 150.9,232 140.4,243.1 154.5,234.7 170.4,225.3 "/>
<polygon class="st0" points="214.5,332.2 220.9,360.5 202.8,364 195.7,349 "/>
<polyline class="st0" points="193.2,329.9 214.5,332.2 195.7,349 193.2,329.9 "/>
<polyline class="st0" points="195.7,349 193.2,329.9 164.8,342.7 169.1,361.3 195.7,349 "/>
<polygon class="st0" points="193.2,329.9 164.8,342.7 147.8,327.4 153,302 "/>
<polygon class="st0" points="153,302 197.1,309.7 193.2,329.9 "/>
<polygon class="st0" points="149,296.1 153,302 197.1,309.7 186.3,273.8 "/>
<polygon class="st0" points="137.9,298.7 148.9,296.1 186.3,273.8 144.3,286.4 "/>
<polygon class="st0" points="112,295.5 137.9,298.7 144.3,286.4 113.6,286.5 "/>
<polygon class="st0" points="195.7,349 169.1,361.3 202.8,364 "/>
<g>
	<path class="st1" d="M140.3,438h-31.7c-0.8,0-1.4-0.2-1.7-0.5c-0.4-0.4-0.5-0.9-0.5-1.7v-40.4c0-0.8,0.2-1.4,0.5-1.7
		c0.4-0.4,0.9-0.5,1.7-0.5h9.7c0.8,0,1.4,0.2,1.7,0.5c0.4,0.4,0.5,0.9,0.5,1.7v30.9h8.5v-10.1c0-0.8,0.2-1.4,0.5-1.7
		c0.4-0.4,0.9-0.5,1.7-0.5h9c0.8,0,1.4,0.2,1.7,0.5c0.4,0.4,0.5,0.9,0.5,1.7v19.6c0,0.8-0.2,1.4-0.5,1.7
		C141.7,437.9,141.1,438,140.3,438z"/>
	<path class="st1" d="M150.9,438c-0.8,0-1.4-0.2-1.7-0.5c-0.4-0.4-0.5-0.9-0.5-1.7v-7.4c0-0.8,0.2-1.4,0.5-1.7
		c0.4-0.4,0.9-0.5,1.7-0.5h6.2v-21h-6.2c-0.8,0-1.4-0.2-1.7-0.5c-0.4-0.4-0.5-0.9-0.5-1.7v-7.5c0-0.8,0.2-1.4,0.5-1.7
		c0.4-0.4,0.9-0.5,1.7-0.5h26.6c0.8,0,1.4,0.2,1.7,0.5c0.4,0.4,0.5,0.9,0.5,1.7v7.5c0,0.8-0.2,1.4-0.5,1.7c-0.4,0.4-0.9,0.5-1.7,0.5
		h-6v21h6c0.8,0,1.4,0.2,1.7,0.5c0.4,0.4,0.5,0.9,0.5,1.7v7.4c0,0.8-0.2,1.4-0.5,1.7c-0.4,0.4-0.9,0.5-1.7,0.5H150.9z"/>
	<path class="st1" d="M225.4,426.3c0,1.9-0.3,3.6-0.8,5.2c-0.6,1.6-1.6,2.9-3,4s-3.4,2-5.9,2.6c-2.5,0.6-5.7,0.9-9.6,0.9
		c-3.9,0-7.1-0.3-9.6-0.9c-2.5-0.6-4.5-1.5-6-2.6c-1.4-1.1-2.4-2.4-3-4c-0.6-1.6-0.8-3.3-0.8-5.2V405c0-1.9,0.3-3.6,0.8-5.2
		c0.6-1.6,1.6-2.9,3-4c1.4-1.1,3.4-2,6-2.6c2.5-0.6,5.7-0.9,9.6-0.9c3.9,0,7.1,0.3,9.6,0.9c2.5,0.6,4.5,1.5,5.9,2.6
		c1.4,1.1,2.4,2.5,3,4c0.6,1.6,0.8,3.3,0.8,5.2V426.3z M200.9,424c0,0.8,0.3,1.5,0.9,2.1s2.1,0.8,4.3,0.8s3.7-0.3,4.3-0.8
		s0.9-1.3,0.9-2.1v-16.8c0-0.8-0.3-1.5-0.9-2c-0.6-0.6-2.1-0.8-4.3-0.8s-3.7,0.3-4.3,0.8c-0.6,0.6-0.9,1.2-0.9,2V424z"/>
	<path class="st1" d="M245,438h-9.4c-0.8,0-1.4-0.2-1.7-0.5c-0.4-0.4-0.5-0.9-0.5-1.7v-40.4c0-0.8,0.2-1.4,0.5-1.7
		c0.4-0.4,0.9-0.5,1.7-0.5h6.5c0.8,0,1.5,0.1,2,0.4c0.6,0.2,1.1,0.7,1.7,1.3l12.1,13.8v-13.3c0-0.8,0.2-1.4,0.5-1.7
		c0.4-0.4,0.9-0.5,1.7-0.5h9.4c0.8,0,1.4,0.2,1.7,0.5c0.4,0.4,0.5,0.9,0.5,1.7v40.4c0,0.8-0.2,1.4-0.5,1.7c-0.4,0.4-0.9,0.5-1.7,0.5
		h-9.4c-0.8,0-1.4-0.2-1.7-0.5c-0.4-0.4-0.5-0.9-0.5-1.7v-7.7l-10.7-12.9v20.6c0,0.8-0.2,1.4-0.5,1.7C246.3,437.9,245.8,438,245,438
		z"/>
	<path class="st1" d="M301.1,438h-19.7c-0.8,0-1.4-0.2-1.7-0.5c-0.4-0.4-0.5-0.9-0.5-1.7v-7.3c0-0.8,0.2-1.4,0.5-1.7
		c0.4-0.4,0.9-0.5,1.7-0.5h16.8c0.5,0,0.9-0.2,1.2-0.5c0.3-0.4,0.4-0.8,0.4-1.3c0-0.7-0.1-1.2-0.4-1.6c-0.3-0.3-0.7-0.5-1.2-0.6
		l-9.4-1.3c-2.9-0.4-5.2-1.4-7-2.9c-1.8-1.5-2.7-4-2.7-7.5v-6.5c0-3.5,1.1-6.2,3.4-8.1c2.3-1.9,5.4-2.8,9.5-2.8h17.5
		c0.8,0,1.4,0.2,1.7,0.5c0.4,0.4,0.5,0.9,0.5,1.7v7.4c0,0.8-0.2,1.4-0.5,1.7c-0.4,0.4-0.9,0.5-1.7,0.5H295c-0.5,0-1,0.2-1.2,0.5
		c-0.3,0.4-0.4,0.8-0.4,1.3c0,0.5,0.1,1,0.4,1.4c0.3,0.4,0.7,0.6,1.2,0.6l9.3,1.2c2.9,0.4,5.3,1.4,7,2.9c1.8,1.5,2.7,4,2.7,7.5v6.5
		c0,3.5-1.2,6.2-3.5,8.1C308.3,437.1,305.1,438,301.1,438z"/>
</g>
<g>
	<polygon class="st0" points="150.9,232 153.5,225.3 129.6,225.4 129.4,232.2 150.9,232 	"/>
	<polygon class="st0" points="129.4,232.2 129.4,232.3 106.8,254.2 129.8,256 140.4,243.1 150.9,232 	"/>
</g>
</svg>
