<?xml version="1.0" encoding="utf-8"?>
<!-- Generator: Adobe Illustrator 25.1.0, SVG Export Plug-In . SVG Version: 6.00 Build 0)  -->
<svg version="1.1" id="Ebene_1" xmlns="http://www.w3.org/2000/svg" xmlns:xlink="http://www.w3.org/1999/xlink" x="0px" y="0px"
	 viewBox="0 0 419.5 595.3" style="enable-background:new 0 0 419.5 595.3;" xml:space="preserve">
<style type="text/css">
	.st0{fill:#EB660C;}
	.st1{fill:#E54E10;}
	.st2{fill:#CC1417;}
	.st3{fill:#E95A0C;}
	.st4{fill:#EC6E07;}
	.st5{fill:#A41734;}
	.st6{fill:#E53B14;}
	.st7{fill:#DA4013;}
	.st8{fill:#EE7D02;}
	.st9{fill:#E98908;}
	.st10{fill:#F49B00;}
	.st11{fill:#ED7203;}
	.st12{fill:#EC7204;}
	.st13{fill:#6C131F;}
	.st14{fill:#636362;}
</style>
<polygon class="st0" points="175.1,189.9 149,172.1 133.5,206.3 140.7,205.8 156.8,208 "/>
<polygon class="st1" points="200.2,157.3 175.4,168.6 149,172.1 175.1,189.9 "/>
<polygon class="st2" points="175.1,189.9 200.2,157.3 226.3,191.9 212.1,203.3 "/>
<polygon class="st3" points="200.2,157.3 226.3,191.9 234.2,169.2 "/>
<polygon class="st4" points="234.2,169.2 267.5,194.8 257.8,207.2 226.3,191.9 "/>
<polygon class="st2" points="267.5,194.8 294.4,246.2 284.9,245.1 257.8,207.2 "/>
<polygon class="st5" points="246.7,219.8 257.8,207.2 284.9,245.1 "/>
<polygon class="st2" points="284.9,245.1 239.7,255.1 246.7,219.8 "/>
<polygon class="st5" points="289.1,298.7 284.9,245.1 239.7,255.1 "/>
<polygon class="st3" points="233.4,293.4 289.1,298.7 239.7,255.1 "/>
<polygon class="st2" points="259.3,318.5 279.8,309.7 289.1,298.7 233.4,293.4 "/>
<polygon class="st5" points="259.3,318.5 245.2,339.1 233.4,293.4 "/>
<polygon class="st5" points="220.7,360.1 245.2,339.1 231.8,361.1 "/>
<polygon class="st3" points="245.2,339.1 220.7,360.1 214.3,331.8 "/>
<polygon class="st4" points="214.3,331.8 245.2,339.1 233.4,293.4 222,279.5 224.2,296.3 "/>
<polygon class="st2" points="214.3,331.8 193,329.5 196.9,309.3 224.2,296.3 "/>
<polygon class="st1" points="212.1,203.3 226.3,191.9 257.8,207.2 246.7,219.8 "/>
<polygon class="st6" points="213.4,227.7 212.1,203.3 246.7,219.8 "/>
<polygon class="st7" points="181.2,215.4 212.1,203.3 213.4,227.7 185,236.2 "/>
<polygon class="st8" points="181.2,215.4 156.8,208 175.1,189.9 212.1,203.3 "/>
<polygon class="st4" points="213.4,227.7 246.7,219.8 239.7,255.1 "/>
<polygon class="st4" points="185,236.2 213.4,227.7 239.7,255.1 200.8,253.6 "/>
<polygon class="st2" points="200.8,253.6 239.7,255.1 233.4,293.4 "/>
<polygon class="st1" points="200.8,253.6 186.1,273.4 196.9,309.3 224.2,296.3 222,279.5 "/>
<polygon class="st9" points="186.1,273.4 200.8,253.5 185,236.2 "/>
<polygon class="st10" points="140.7,205.8 129.4,224.9 170.2,224.9 140.2,242.6 129.6,255.6 107.9,266.3 106.7,273.3 136.7,269.8 
	153.6,254.6 185,236.2 181.2,215.4 156.8,208 "/>
<polygon class="st11" points="185,236.2 153.6,254.6 186.1,273.4 "/>
<polygon class="st3" points="186.1,273.4 144.1,286 136.7,269.8 153.6,254.6 "/>
<polygon class="st12" points="106.7,273.3 136.7,269.8 144.1,286 113.4,286.1 "/>
<polygon class="st1" points="107.9,266.3 129.6,255.6 106.6,253.8 "/>
<polygon class="st2" points="140.2,242.6 154.3,234.3 150.7,231.5 "/>
<polygon class="st13" points="154.3,234.3 150.7,231.5 153.3,224.9 170.2,224.9 "/>
<polygon class="st2" points="214.3,331.8 220.7,360.1 202.6,363.5 195.5,348.6 "/>
<polyline class="st1" points="193,329.5 214.3,331.8 195.5,348.6 193,329.5 "/>
<polyline class="st4" points="195.5,348.6 193,329.5 164.6,342.3 168.9,360.9 195.5,348.6 "/>
<polygon class="st3" points="193,329.5 164.6,342.3 147.6,327 152.8,301.6 "/>
<polygon class="st7" points="152.8,301.6 196.9,309.3 193,329.5 "/>
<polygon class="st2" points="148.8,295.7 152.8,301.6 196.9,309.3 186.1,273.4 "/>
<polygon class="st5" points="137.7,298.2 148.7,295.7 186.1,273.4 144.1,286 "/>
<polygon class="st9" points="111.8,295.1 137.7,298.2 144.1,286 113.4,286.1 "/>
<polygon class="st6" points="195.5,348.6 168.9,360.9 202.6,363.5 "/>
<g>
	<g>
		<path class="st14" d="M140.1,437.6h-31.7c-0.8,0-1.4-0.2-1.7-0.5c-0.4-0.4-0.5-0.9-0.5-1.7V395c0-0.8,0.2-1.4,0.5-1.7
			c0.4-0.4,0.9-0.5,1.7-0.5h9.7c0.8,0,1.4,0.2,1.7,0.5c0.4,0.4,0.5,0.9,0.5,1.7v30.9h8.5v-10.1c0-0.8,0.2-1.4,0.5-1.7
			c0.4-0.4,0.9-0.5,1.7-0.5h9c0.8,0,1.4,0.2,1.7,0.5c0.4,0.4,0.5,0.9,0.5,1.7v19.6c0,0.8-0.2,1.4-0.5,1.7
			C141.5,437.4,140.9,437.6,140.1,437.6z"/>
		<path class="st14" d="M150.7,437.6c-0.8,0-1.4-0.2-1.7-0.5c-0.4-0.4-0.5-0.9-0.5-1.7V428c0-0.8,0.2-1.4,0.5-1.7
			c0.4-0.4,0.9-0.5,1.7-0.5h6.2v-21h-6.2c-0.8,0-1.4-0.2-1.7-0.5c-0.4-0.4-0.5-0.9-0.5-1.7V395c0-0.8,0.2-1.4,0.5-1.7
			c0.4-0.4,0.9-0.5,1.7-0.5h26.6c0.8,0,1.4,0.2,1.7,0.5c0.4,0.4,0.5,0.9,0.5,1.7v7.5c0,0.8-0.2,1.4-0.5,1.7
			c-0.4,0.4-0.9,0.5-1.7,0.5h-6v21h6c0.8,0,1.4,0.2,1.7,0.5c0.4,0.4,0.5,0.9,0.5,1.7v7.4c0,0.8-0.2,1.4-0.5,1.7
			c-0.4,0.4-0.9,0.5-1.7,0.5H150.7z"/>
		<path class="st14" d="M225.2,425.8c0,1.9-0.3,3.6-0.8,5.2c-0.6,1.6-1.6,2.9-3,4c-1.4,1.1-3.4,2-5.9,2.6c-2.5,0.6-5.7,0.9-9.6,0.9
			c-3.9,0-7.1-0.3-9.6-0.9c-2.5-0.6-4.5-1.5-6-2.6c-1.4-1.1-2.4-2.4-3-4c-0.6-1.6-0.8-3.3-0.8-5.2v-21.3c0-1.9,0.3-3.6,0.8-5.2
			c0.6-1.6,1.6-2.9,3-4c1.4-1.1,3.4-2,6-2.6c2.5-0.6,5.7-0.9,9.6-0.9c3.9,0,7.1,0.3,9.6,0.9c2.5,0.6,4.5,1.5,5.9,2.6
			c1.4,1.1,2.4,2.5,3,4c0.6,1.6,0.8,3.3,0.8,5.2V425.8z M200.7,423.6c0,0.8,0.3,1.5,0.9,2.1s2.1,0.8,4.3,0.8s3.7-0.3,4.3-0.8
			s0.9-1.3,0.9-2.1v-16.8c0-0.8-0.3-1.5-0.9-2c-0.6-0.6-2.1-0.8-4.3-0.8s-3.7,0.3-4.3,0.8c-0.6,0.6-0.9,1.2-0.9,2V423.6z"/>
		<path class="st14" d="M244.8,437.6h-9.4c-0.8,0-1.4-0.2-1.7-0.5c-0.4-0.4-0.5-0.9-0.5-1.7V395c0-0.8,0.2-1.4,0.5-1.7
			c0.4-0.4,0.9-0.5,1.7-0.5h6.5c0.8,0,1.5,0.1,2,0.4s1.1,0.7,1.7,1.3l12.1,13.8V395c0-0.8,0.2-1.4,0.5-1.7c0.4-0.4,0.9-0.5,1.7-0.5
			h9.4c0.8,0,1.4,0.2,1.7,0.5s0.5,0.9,0.5,1.7v40.4c0,0.8-0.2,1.4-0.5,1.7c-0.4,0.4-0.9,0.5-1.7,0.5h-9.4c-0.8,0-1.4-0.2-1.7-0.5
			c-0.4-0.4-0.5-0.9-0.5-1.7v-7.7L247,414.8v20.6c0,0.8-0.2,1.4-0.5,1.7C246.1,437.4,245.6,437.6,244.8,437.6z"/>
		<path class="st14" d="M301,437.6h-19.7c-0.8,0-1.4-0.2-1.7-0.5c-0.4-0.4-0.5-0.9-0.5-1.7v-7.3c0-0.8,0.2-1.4,0.5-1.7
			c0.4-0.4,0.9-0.5,1.7-0.5H298c0.5,0,0.9-0.2,1.2-0.5s0.4-0.8,0.4-1.3c0-0.7-0.1-1.2-0.4-1.6c-0.3-0.3-0.7-0.5-1.2-0.6l-9.4-1.3
			c-2.9-0.4-5.2-1.4-7-2.9c-1.8-1.5-2.7-4-2.7-7.5v-6.5c0-3.5,1.1-6.2,3.4-8.1c2.3-1.9,5.4-2.8,9.5-2.8h17.5c0.8,0,1.4,0.2,1.7,0.5
			c0.4,0.4,0.5,0.9,0.5,1.7v7.4c0,0.8-0.2,1.4-0.5,1.7c-0.4,0.4-0.9,0.5-1.7,0.5h-14.5c-0.5,0-1,0.2-1.2,0.5
			c-0.3,0.4-0.4,0.8-0.4,1.3c0,0.5,0.1,1,0.4,1.4c0.3,0.4,0.7,0.6,1.2,0.6l9.3,1.2c2.9,0.4,5.3,1.4,7,2.9c1.8,1.5,2.7,4,2.7,7.5v6.5
			c0,3.5-1.2,6.2-3.5,8.1C308.1,436.7,304.9,437.6,301,437.6z"/>
	</g>
</g>
<g>
	<polygon class="st1" points="150.7,231.5 153.3,224.9 129.4,224.9 129.2,231.8 150.7,231.5 	"/>
	<polygon class="st8" points="129.2,231.8 129.2,231.8 106.6,253.8 129.6,255.6 140.2,242.6 150.7,231.5 	"/>
</g>
</svg>
